<svg width="48" height="24" viewBox="0 0 48 24" fill="none" xmlns="http://www.w3.org/2000/svg">
<path d="M16.9665 22.3953C15.8629 23.1095 14.5386 23.4665 12.9937 23.4665C12.155 23.4665 11.4818 23.3215 10.9741 23.0313C10.4665 22.7412 10.1354 22.3395 9.98094 21.8262C8.61253 22.9198 7.0565 23.4665 5.31288 23.4665C3.85618 23.4665 2.73055 23.1652 1.93599 22.5627C1.14142 21.9601 0.744141 21.0786 0.744141 19.9181C0.744141 18.4228 1.54974 17.1508 3.16094 16.1019C4.77214 15.0529 7.01236 14.2607 9.88162 13.7251V11.2144C9.85955 10.2324 9.67194 9.51828 9.3188 9.07194C8.96566 8.60328 8.3256 8.36895 7.39861 8.36895C6.8689 8.36895 6.41644 8.45822 6.04123 8.63675C5.66602 8.79297 5.47841 8.99383 5.47841 9.23932C5.47841 9.41785 5.58877 9.64103 5.80948 9.90883C5.98605 10.132 6.10744 10.3217 6.17366 10.4779C6.26194 10.6341 6.30608 10.8573 6.30608 11.1474C6.30608 11.7277 6.09641 12.2298 5.67705 12.6538C5.2577 13.0556 4.70592 13.2564 4.02171 13.2564C3.31544 13.2564 2.75262 13.0556 2.33327 12.6538C1.93599 12.2298 1.73734 11.7388 1.73734 11.1809C1.73734 10.4891 1.99116 9.83072 2.4988 9.20584C3.02851 8.58096 3.84514 8.06766 4.9487 7.66596C6.05227 7.24193 7.43172 7.02992 9.08706 7.02992C10.9852 7.02992 12.3646 7.4651 13.2254 8.33547C14.1083 9.18352 14.5497 10.5337 14.5497 12.386V19.7507C14.5497 20.5541 14.6159 21.0897 14.7483 21.3576C14.9028 21.6254 15.1456 21.7593 15.4767 21.7593C15.7636 21.7593 16.0064 21.7146 16.205 21.6254C16.4257 21.5138 16.5582 21.4468 16.6023 21.4245L16.9665 22.3953ZM5.4122 19.1481C5.4122 19.9516 5.57773 20.543 5.9088 20.9224C6.26194 21.2794 6.80269 21.458 7.53104 21.458C8.23731 21.458 9.02084 21.1344 9.88162 20.4872V15.0976C8.33663 15.5216 7.19997 16.0572 6.47162 16.7044C5.76534 17.3516 5.4122 18.1662 5.4122 19.1481Z" fill="black"></path>
<path d="M17.7393 21.9936C18.4014 21.9936 18.876 21.949 19.1629 21.8597C19.4498 21.7704 19.6374 21.6254 19.7257 21.4245C19.814 21.2013 19.8581 20.8331 19.8581 20.3198V3.24715C19.8581 2.71154 19.7919 2.36562 19.6595 2.2094C19.5491 2.03087 19.2953 1.9416 18.8981 1.9416H17.8055V0.836896L23.1357 0H24.5593V20.3198C24.5593 20.8108 24.6035 21.1679 24.6917 21.391C24.78 21.6142 24.9566 21.7704 25.2214 21.8597C25.4863 21.949 25.9057 21.9936 26.4795 21.9936V23.0983H17.7393V21.9936Z" fill="black"></path>
<path d="M33.9466 23.5C32.512 23.5 31.4195 23.1094 30.6691 22.3283C29.9407 21.5472 29.5765 20.2975 29.5765 18.5791V8.5698H27.5901V7.4651C28.8703 7.24193 30.018 6.56125 31.0332 5.42308C32.0485 4.2849 32.7658 2.95703 33.1852 1.43946H34.2777V7.36467H37.5222V8.5698H34.2777V18.3782C34.2777 19.4494 34.4212 20.2417 34.7081 20.755C34.995 21.246 35.4696 21.4915 36.1317 21.4915C36.4628 21.4915 36.7718 21.4357 37.0587 21.3241C37.3456 21.1902 37.6546 21.034 37.9857 20.8554L38.5485 21.7927C38.4602 21.8597 38.1843 22.0605 37.7208 22.3953C37.2794 22.7077 36.7276 22.9644 36.0655 23.1652C35.4033 23.3884 34.6971 23.5 33.9466 23.5Z" fill="black"></path>
<circle cx="44.1441" cy="20.4" r="3.4" fill="black"></circle>
</svg>